<mxfile host="Electron" agent="Mozilla/5.0 (Windows NT 10.0; Win64; x64) AppleWebKit/537.36 (KHTML, like Gecko) draw.io/24.7.8 Chrome/128.0.6613.36 Electron/32.0.1 Safari/537.36" version="24.7.8">
  <diagram name="Страница — 1" id="8xEGiKHFi9h_xXyDPzCb">
    <mxGraphModel dx="2849" dy="1906" grid="1" gridSize="10" guides="1" tooltips="1" connect="1" arrows="1" fold="1" page="1" pageScale="1" pageWidth="827" pageHeight="1169" math="0" shadow="0">
      <root>
        <mxCell id="0" />
        <mxCell id="1" parent="0" />
        <mxCell id="g-XUl5xRxITK2XrlKr2I-2" value="" style="shape=umlLifeline;perimeter=lifelinePerimeter;whiteSpace=wrap;html=1;container=1;dropTarget=0;collapsible=0;recursiveResize=0;outlineConnect=0;portConstraint=eastwest;newEdgeStyle={&quot;curved&quot;:0,&quot;rounded&quot;:0};participant=umlActor;" parent="1" vertex="1">
          <mxGeometry x="-855" y="-392" width="20" height="352" as="geometry" />
        </mxCell>
        <mxCell id="g-XUl5xRxITK2XrlKr2I-3" value=":Front" style="shape=umlLifeline;perimeter=lifelinePerimeter;whiteSpace=wrap;html=1;container=1;dropTarget=0;collapsible=0;recursiveResize=0;outlineConnect=0;portConstraint=eastwest;newEdgeStyle={&quot;curved&quot;:0,&quot;rounded&quot;:0};" parent="1" vertex="1">
          <mxGeometry x="-680" y="-400" width="100" height="360" as="geometry" />
        </mxCell>
        <mxCell id="g-XUl5xRxITK2XrlKr2I-4" value="" style="html=1;points=[[0,0,0,0,5],[0,1,0,0,-5],[1,0,0,0,5],[1,1,0,0,-5]];perimeter=orthogonalPerimeter;outlineConnect=0;targetShapes=umlLifeline;portConstraint=eastwest;newEdgeStyle={&quot;curved&quot;:0,&quot;rounded&quot;:0};fillColor=#A136FF;fontStyle=1" parent="g-XUl5xRxITK2XrlKr2I-3" vertex="1">
          <mxGeometry x="45" y="60" width="10" height="20" as="geometry" />
        </mxCell>
        <mxCell id="g-XUl5xRxITK2XrlKr2I-5" value="" style="html=1;points=[[0,0,0,0,5],[0,1,0,0,-5],[1,0,0,0,5],[1,1,0,0,-5]];perimeter=orthogonalPerimeter;outlineConnect=0;targetShapes=umlLifeline;portConstraint=eastwest;newEdgeStyle={&quot;curved&quot;:0,&quot;rounded&quot;:0};fillColor=#A136FF;" parent="g-XUl5xRxITK2XrlKr2I-3" vertex="1">
          <mxGeometry x="45" y="320" width="10" height="10" as="geometry" />
        </mxCell>
        <mxCell id="RKtCZiCR6TxU-hlj43y8-5" value="" style="html=1;points=[[0,0,0,0,5],[0,1,0,0,-5],[1,0,0,0,5],[1,1,0,0,-5]];perimeter=orthogonalPerimeter;outlineConnect=0;targetShapes=umlLifeline;portConstraint=eastwest;newEdgeStyle={&quot;curved&quot;:0,&quot;rounded&quot;:0};fillColor=#A136FF;fontStyle=1" vertex="1" parent="g-XUl5xRxITK2XrlKr2I-3">
          <mxGeometry x="45" y="190" width="10" height="10" as="geometry" />
        </mxCell>
        <mxCell id="g-XUl5xRxITK2XrlKr2I-6" value=":Back" style="shape=umlLifeline;perimeter=lifelinePerimeter;whiteSpace=wrap;html=1;container=1;dropTarget=0;collapsible=0;recursiveResize=0;outlineConnect=0;portConstraint=eastwest;newEdgeStyle={&quot;curved&quot;:0,&quot;rounded&quot;:0};" parent="1" vertex="1">
          <mxGeometry x="-480" y="-400" width="100" height="360" as="geometry" />
        </mxCell>
        <mxCell id="g-XUl5xRxITK2XrlKr2I-7" value="" style="html=1;points=[[0,0,0,0,5],[0,1,0,0,-5],[1,0,0,0,5],[1,1,0,0,-5]];perimeter=orthogonalPerimeter;outlineConnect=0;targetShapes=umlLifeline;portConstraint=eastwest;newEdgeStyle={&quot;curved&quot;:0,&quot;rounded&quot;:0};fillColor=#A136FF;" parent="g-XUl5xRxITK2XrlKr2I-6" vertex="1">
          <mxGeometry x="45" y="80" width="10" height="110" as="geometry" />
        </mxCell>
        <mxCell id="g-XUl5xRxITK2XrlKr2I-8" value="Обработка запроса" style="html=1;align=left;spacingLeft=2;endArrow=block;rounded=0;edgeStyle=orthogonalEdgeStyle;curved=0;rounded=0;" parent="g-XUl5xRxITK2XrlKr2I-6" target="g-XUl5xRxITK2XrlKr2I-7" edge="1">
          <mxGeometry relative="1" as="geometry">
            <mxPoint x="55" y="80.05999999999997" as="sourcePoint" />
            <Array as="points">
              <mxPoint x="80" y="80" />
              <mxPoint x="80" y="110" />
            </Array>
            <mxPoint x="60" y="110.0644827586207" as="targetPoint" />
          </mxGeometry>
        </mxCell>
        <mxCell id="g-XUl5xRxITK2XrlKr2I-9" value="" style="html=1;points=[[0,0,0,0,5],[0,1,0,0,-5],[1,0,0,0,5],[1,1,0,0,-5]];perimeter=orthogonalPerimeter;outlineConnect=0;targetShapes=umlLifeline;portConstraint=eastwest;newEdgeStyle={&quot;curved&quot;:0,&quot;rounded&quot;:0};fillColor=#A136FF;" parent="g-XUl5xRxITK2XrlKr2I-6" vertex="1">
          <mxGeometry x="45" y="270" width="10" height="50" as="geometry" />
        </mxCell>
        <mxCell id="g-XUl5xRxITK2XrlKr2I-10" value="Сбор полученных данных&amp;nbsp;" style="html=1;align=left;spacingLeft=2;endArrow=block;rounded=0;edgeStyle=orthogonalEdgeStyle;curved=0;rounded=0;" parent="g-XUl5xRxITK2XrlKr2I-6" edge="1">
          <mxGeometry relative="1" as="geometry">
            <mxPoint x="55" y="280" as="sourcePoint" />
            <Array as="points">
              <mxPoint x="83" y="280" />
              <mxPoint x="83" y="310" />
            </Array>
            <mxPoint x="55" y="310" as="targetPoint" />
          </mxGeometry>
        </mxCell>
        <mxCell id="RKtCZiCR6TxU-hlj43y8-1" value="Проверка наличия прослушиваний" style="html=1;align=left;spacingLeft=2;endArrow=block;rounded=0;edgeStyle=orthogonalEdgeStyle;curved=0;rounded=0;" edge="1" parent="g-XUl5xRxITK2XrlKr2I-6" source="g-XUl5xRxITK2XrlKr2I-7" target="g-XUl5xRxITK2XrlKr2I-7">
          <mxGeometry relative="1" as="geometry">
            <mxPoint x="65" y="119.99999999999994" as="sourcePoint" />
            <Array as="points">
              <mxPoint x="80" y="120" />
              <mxPoint x="80" y="150" />
            </Array>
            <mxPoint x="65" y="149.94" as="targetPoint" />
          </mxGeometry>
        </mxCell>
        <mxCell id="g-XUl5xRxITK2XrlKr2I-11" value=":База данных" style="shape=umlLifeline;perimeter=lifelinePerimeter;whiteSpace=wrap;html=1;container=1;dropTarget=0;collapsible=0;recursiveResize=0;outlineConnect=0;portConstraint=eastwest;newEdgeStyle={&quot;curved&quot;:0,&quot;rounded&quot;:0};" parent="1" vertex="1">
          <mxGeometry x="-260" y="-400" width="100" height="360" as="geometry" />
        </mxCell>
        <mxCell id="g-XUl5xRxITK2XrlKr2I-12" value="" style="html=1;points=[[0,0,0,0,5],[0,1,0,0,-5],[1,0,0,0,5],[1,1,0,0,-5]];perimeter=orthogonalPerimeter;outlineConnect=0;targetShapes=umlLifeline;portConstraint=eastwest;newEdgeStyle={&quot;curved&quot;:0,&quot;rounded&quot;:0};fillColor=#A136FF;" parent="g-XUl5xRxITK2XrlKr2I-11" vertex="1">
          <mxGeometry x="45" y="180" width="10" height="50" as="geometry" />
        </mxCell>
        <mxCell id="g-XUl5xRxITK2XrlKr2I-14" value="" style="html=1;points=[[0,0,0,0,5],[0,1,0,0,-5],[1,0,0,0,5],[1,1,0,0,-5]];perimeter=orthogonalPerimeter;outlineConnect=0;targetShapes=umlLifeline;portConstraint=eastwest;newEdgeStyle={&quot;curved&quot;:0,&quot;rounded&quot;:0};fillColor=#A136FF;" parent="g-XUl5xRxITK2XrlKr2I-11" vertex="1">
          <mxGeometry x="45" y="260" width="10" height="10" as="geometry" />
        </mxCell>
        <mxCell id="RKtCZiCR6TxU-hlj43y8-3" value="Обработка запроса" style="html=1;align=left;spacingLeft=2;endArrow=block;rounded=0;edgeStyle=orthogonalEdgeStyle;curved=0;rounded=0;" edge="1" parent="g-XUl5xRxITK2XrlKr2I-11" source="g-XUl5xRxITK2XrlKr2I-12" target="g-XUl5xRxITK2XrlKr2I-12">
          <mxGeometry relative="1" as="geometry">
            <mxPoint x="50" y="169.02999999999994" as="sourcePoint" />
            <Array as="points">
              <mxPoint x="75" y="180" />
              <mxPoint x="75" y="199" />
            </Array>
            <mxPoint x="50" y="198.97" as="targetPoint" />
          </mxGeometry>
        </mxCell>
        <mxCell id="g-XUl5xRxITK2XrlKr2I-15" value=":Радиовещатель" style="text;html=1;align=center;verticalAlign=middle;resizable=0;points=[];autosize=1;strokeColor=none;fillColor=none;" parent="1" vertex="1">
          <mxGeometry x="-905" y="-422" width="120" height="30" as="geometry" />
        </mxCell>
        <mxCell id="g-XUl5xRxITK2XrlKr2I-16" value="Нажимает на кнопку аналитики" style="html=1;verticalAlign=bottom;endArrow=block;curved=0;rounded=0;" parent="1" source="g-XUl5xRxITK2XrlKr2I-20" target="g-XUl5xRxITK2XrlKr2I-4" edge="1">
          <mxGeometry width="80" relative="1" as="geometry">
            <mxPoint x="-740" y="-300" as="sourcePoint" />
            <mxPoint x="-660" y="-300" as="targetPoint" />
            <Array as="points">
              <mxPoint x="-690" y="-340" />
            </Array>
          </mxGeometry>
        </mxCell>
        <mxCell id="g-XUl5xRxITK2XrlKr2I-17" value="Запрос на сбор аналитики" style="html=1;verticalAlign=bottom;endArrow=block;curved=0;rounded=0;" parent="1" source="g-XUl5xRxITK2XrlKr2I-4" target="g-XUl5xRxITK2XrlKr2I-6" edge="1">
          <mxGeometry width="80" relative="1" as="geometry">
            <mxPoint x="-520" y="-340" as="sourcePoint" />
            <mxPoint x="-485" y="-320.0000000000002" as="targetPoint" />
            <Array as="points">
              <mxPoint x="-560" y="-320" />
            </Array>
          </mxGeometry>
        </mxCell>
        <mxCell id="g-XUl5xRxITK2XrlKr2I-18" value="Запрос на отображение результата" style="html=1;verticalAlign=bottom;endArrow=block;curved=0;rounded=0;" parent="1" edge="1">
          <mxGeometry width="80" relative="1" as="geometry">
            <mxPoint x="-435" y="-80" as="sourcePoint" />
            <mxPoint x="-625" y="-80" as="targetPoint" />
            <Array as="points">
              <mxPoint x="-520" y="-80" />
              <mxPoint x="-590" y="-80" />
            </Array>
          </mxGeometry>
        </mxCell>
        <mxCell id="g-XUl5xRxITK2XrlKr2I-19" value="Вывод аналитики" style="html=1;verticalAlign=bottom;endArrow=block;curved=0;rounded=0;" parent="1" source="g-XUl5xRxITK2XrlKr2I-5" target="g-XUl5xRxITK2XrlKr2I-20" edge="1">
          <mxGeometry width="80" relative="1" as="geometry">
            <mxPoint x="-750" y="-260" as="sourcePoint" />
            <mxPoint x="-670" y="-260" as="targetPoint" />
            <Array as="points">
              <mxPoint x="-740" y="-70" />
            </Array>
          </mxGeometry>
        </mxCell>
        <mxCell id="g-XUl5xRxITK2XrlKr2I-20" value="" style="html=1;points=[[0,0,0,0,5],[0,1,0,0,-5],[1,0,0,0,5],[1,1,0,0,-5]];perimeter=orthogonalPerimeter;outlineConnect=0;targetShapes=umlLifeline;portConstraint=eastwest;newEdgeStyle={&quot;curved&quot;:0,&quot;rounded&quot;:0};fillColor=#7AFFFF;" parent="1" vertex="1">
          <mxGeometry x="-850" y="-352" width="10" height="302" as="geometry" />
        </mxCell>
        <mxCell id="g-XUl5xRxITK2XrlKr2I-21" value="&lt;font style=&quot;font-size: 8px;&quot;&gt;Если прослушивания присутствуют,&amp;nbsp;&lt;/font&gt;&lt;div style=&quot;font-size: 8px;&quot;&gt;&lt;font style=&quot;font-size: 8px;&quot;&gt;то отпрвавить запрос на собор и обработку данных&lt;/font&gt;&lt;/div&gt;" style="html=1;verticalAlign=bottom;endArrow=block;curved=0;rounded=0;" parent="1" source="g-XUl5xRxITK2XrlKr2I-7" edge="1">
          <mxGeometry x="0.0011" width="80" relative="1" as="geometry">
            <mxPoint x="-430" y="-220.24000000000024" as="sourcePoint" />
            <mxPoint x="-215" y="-220.24" as="targetPoint" />
            <Array as="points">
              <mxPoint x="-345" y="-220.24" />
            </Array>
            <mxPoint as="offset" />
          </mxGeometry>
        </mxCell>
        <mxCell id="g-XUl5xRxITK2XrlKr2I-22" value=":Хранилище мета данных" style="shape=umlLifeline;perimeter=lifelinePerimeter;whiteSpace=wrap;html=1;container=1;dropTarget=0;collapsible=0;recursiveResize=0;outlineConnect=0;portConstraint=eastwest;newEdgeStyle={&quot;curved&quot;:0,&quot;rounded&quot;:0};" parent="1" vertex="1">
          <mxGeometry x="-90" y="-400" width="100" height="360" as="geometry" />
        </mxCell>
        <mxCell id="g-XUl5xRxITK2XrlKr2I-23" value="" style="html=1;points=[[0,0,0,0,5],[0,1,0,0,-5],[1,0,0,0,5],[1,1,0,0,-5]];perimeter=orthogonalPerimeter;outlineConnect=0;targetShapes=umlLifeline;portConstraint=eastwest;newEdgeStyle={&quot;curved&quot;:0,&quot;rounded&quot;:0};fillColor=#A136FF;" parent="g-XUl5xRxITK2XrlKr2I-22" vertex="1">
          <mxGeometry x="45" y="220" width="10" height="40" as="geometry" />
        </mxCell>
        <mxCell id="g-XUl5xRxITK2XrlKr2I-25" value="Запрос на поиск метаданных" style="html=1;verticalAlign=bottom;endArrow=block;curved=0;rounded=0;" parent="1" edge="1">
          <mxGeometry width="80" relative="1" as="geometry">
            <mxPoint x="-205" y="-180" as="sourcePoint" />
            <mxPoint x="-45" y="-180" as="targetPoint" />
            <Array as="points">
              <mxPoint x="-110" y="-180" />
            </Array>
          </mxGeometry>
        </mxCell>
        <mxCell id="g-XUl5xRxITK2XrlKr2I-26" value="Возвращение метаданных" style="html=1;verticalAlign=bottom;endArrow=block;curved=0;rounded=0;" parent="1" source="g-XUl5xRxITK2XrlKr2I-23" target="g-XUl5xRxITK2XrlKr2I-14" edge="1">
          <mxGeometry width="80" relative="1" as="geometry">
            <mxPoint x="-170" y="-90" as="sourcePoint" />
            <mxPoint x="-90" y="-90" as="targetPoint" />
          </mxGeometry>
        </mxCell>
        <mxCell id="g-XUl5xRxITK2XrlKr2I-27" value="Вовращение результата" style="html=1;verticalAlign=bottom;endArrow=block;curved=0;rounded=0;" parent="1" source="g-XUl5xRxITK2XrlKr2I-14" target="g-XUl5xRxITK2XrlKr2I-9" edge="1">
          <mxGeometry width="80" relative="1" as="geometry">
            <mxPoint x="-350" y="-90" as="sourcePoint" />
            <mxPoint x="-270" y="-90" as="targetPoint" />
            <Array as="points">
              <mxPoint x="-320" y="-130" />
              <mxPoint x="-410" y="-130" />
            </Array>
          </mxGeometry>
        </mxCell>
        <mxCell id="RKtCZiCR6TxU-hlj43y8-4" value="Поиск метаданных" style="html=1;align=left;spacingLeft=2;endArrow=block;rounded=0;edgeStyle=orthogonalEdgeStyle;curved=0;rounded=0;" edge="1" parent="1" target="g-XUl5xRxITK2XrlKr2I-23">
          <mxGeometry relative="1" as="geometry">
            <mxPoint x="-40" y="-180.00000000000006" as="sourcePoint" />
            <Array as="points">
              <mxPoint x="-15" y="-180" />
              <mxPoint x="-15" y="-150" />
            </Array>
            <mxPoint x="-40" y="-150.06" as="targetPoint" />
          </mxGeometry>
        </mxCell>
        <mxCell id="RKtCZiCR6TxU-hlj43y8-6" value="Запрос на вывод ошибки&amp;nbsp;&lt;div&gt;об отсутствии статистики&lt;/div&gt;" style="html=1;verticalAlign=bottom;endArrow=block;curved=0;rounded=0;" edge="1" parent="1" source="g-XUl5xRxITK2XrlKr2I-7" target="RKtCZiCR6TxU-hlj43y8-5">
          <mxGeometry width="80" relative="1" as="geometry">
            <mxPoint x="-580" y="-230" as="sourcePoint" />
            <mxPoint x="-500" y="-230" as="targetPoint" />
          </mxGeometry>
        </mxCell>
        <mxCell id="RKtCZiCR6TxU-hlj43y8-7" value="Вывод ошибки" style="html=1;verticalAlign=bottom;endArrow=block;curved=0;rounded=0;" edge="1" parent="1">
          <mxGeometry width="80" relative="1" as="geometry">
            <mxPoint x="-635" y="-201.14000000000001" as="sourcePoint" />
            <mxPoint x="-840" y="-201.14000000000001" as="targetPoint" />
          </mxGeometry>
        </mxCell>
      </root>
    </mxGraphModel>
  </diagram>
</mxfile>
